<?xml version="1.0" standalone="no"?>
<!DOCTYPE svg PUBLIC "-//W3C//DTD SVG 20010904//EN"
 "http://www.w3.org/TR/2001/REC-SVG-20010904/DTD/svg10.dtd">
<svg version="1.0" xmlns="http://www.w3.org/2000/svg"
 width="512.000000pt" height="512.000000pt" viewBox="0 0 512.000000 512.000000"
 preserveAspectRatio="xMidYMid meet">
<metadata>
Created by potrace 1.14, written by Peter Selinger 2001-2017
</metadata>
<g transform="translate(0.000000,512.000000) scale(0.100000,-0.100000)"
fill="#000000" stroke="none">
<path d="M2495 4806 c-37 -17 -70 -52 -85 -90 -7 -19 -10 -175 -10 -468 1
-382 3 -445 17 -472 22 -45 49 -67 96 -81 72 -21 134 -1 179 59 l23 31 3 461
2 461 -30 41 c-16 23 -42 47 -57 55 -38 18 -101 20 -138 3z"/>
<path d="M1100 4431 c-60 -22 -103 -83 -103 -144 0 -51 7 -65 233 -454 85
-147 157 -272 159 -278 12 -32 67 -99 94 -116 36 -22 102 -25 144 -7 64 28
107 107 93 174 -6 29 -107 209 -349 623 -53 90 -107 172 -121 182 -42 31 -100
38 -150 20z"/>
<path d="M3933 4439 c-63 -13 -86 -37 -155 -159 -14 -25 -58 -101 -98 -170
-41 -69 -83 -142 -94 -162 -12 -20 -58 -102 -104 -182 -91 -158 -99 -191 -67
-260 24 -51 68 -79 130 -84 62 -5 103 13 138 60 33 45 414 708 431 750 44 111
-62 233 -181 207z"/>
<path d="M2418 3295 c-2 -1 -50 -5 -108 -9 -58 -3 -116 -8 -130 -10 -14 -3
-43 -7 -65 -10 -552 -64 -1146 -324 -1560 -685 -192 -168 -427 -453 -530 -646
-47 -88 -29 -143 121 -360 96 -139 150 -202 295 -345 137 -135 150 -146 283
-244 180 -134 369 -242 586 -334 171 -73 426 -151 575 -177 17 -3 37 -8 45
-10 27 -8 88 -18 215 -35 218 -29 561 -32 785 -5 215 26 238 33 284 82 47 51
51 136 10 190 -54 70 -94 80 -244 57 -119 -18 -264 -28 -405 -28 -118 1 -343
12 -354 18 -3 2 -35 7 -71 10 -98 10 -290 51 -430 91 -288 83 -565 218 -802
391 -32 23 -65 49 -73 58 -9 9 -20 16 -25 16 -5 0 -67 57 -137 128 -119 117
-257 284 -312 375 l-23 37 34 53 c53 83 178 235 268 325 357 359 880 620 1410
706 147 23 158 25 265 33 171 12 534 6 586 -11 8 -3 39 -7 69 -10 128 -13 354
-66 520 -123 507 -173 966 -511 1227 -903 52 -79 53 -69 -35 -190 -159 -217
-354 -403 -585 -557 -54 -35 -104 -75 -113 -88 -76 -116 20 -270 156 -249 40
6 211 117 340 220 47 38 137 120 200 184 159 158 260 287 376 474 42 70 48 87
49 135 0 51 -5 65 -59 151 -174 282 -433 558 -701 747 -401 283 -883 464
-1405 527 -114 14 -189 18 -350 21 -99 1 -181 1 -182 0z"/>
<path d="M2405 2813 c-304 -52 -559 -233 -708 -504 -105 -191 -139 -454 -88
-681 26 -112 93 -258 164 -353 285 -383 789 -508 1210 -300 50 25 104 53 119
63 l28 17 372 -372 c325 -323 378 -372 411 -378 131 -25 235 98 183 218 -8 18
-167 184 -365 382 -194 193 -357 358 -362 368 -7 13 -5 25 9 45 37 52 108 205
113 244 0 4 7 29 15 55 21 67 28 141 28 258 -3 384 -248 734 -617 883 -152 61
-351 83 -512 55z m280 -318 c247 -50 449 -241 512 -485 21 -85 21 -235 0 -320
-60 -230 -248 -417 -480 -477 -66 -17 -194 -21 -269 -10 -160 25 -332 137
-428 277 -266 392 -52 916 415 1015 59 12 191 12 250 0z"/>
</g>
</svg>
