<!DOCTYPE svg PUBLIC "-//W3C//DTD SVG 1.1//EN" "http://www.w3.org/Graphics/SVG/1.1/DTD/svg11.dtd">
<svg xmlns="http://www.w3.org/2000/svg" viewBox="0 0 1280 720">
<path fill="#fbfbfb" stroke="#fbfbfb" d="M803.204 97.013c-6.696 3.47-17.258 7.239-27.954 9.977l-4.25 1.087.001 107.212c0 58.966.299 136.574.664 172.461l.663 65.25 2.086-.017c2.638-.021 15.71-7.017 28.065-15.021l9.521-6.168.001-40.647c.001-62.628 3.721-87.884 16.24-110.255 6.16-11.007 17.449-21.992 21.144-20.574 4.531 1.738 5.57 24.296 5.594 121.394.024 93.151-.35 88.682 8.121 97.152 6.793 6.793 11.785 8.636 23.4 8.636 11.675 0 16.213-1.959 23.368-10.087 7.977-9.063 11.164-25.828 6.808-35.817-2.217-5.083-2.297-4.946-5.642 9.544-3.629 15.722-6.297 22.78-9.927 26.258-6.384 6.116-6.461 5.019-7.104-100.398-.565-92.786-.614-94.639-2.728-102.169-5.343-19.039-13.523-25.776-29.775-24.523-19.322 1.489-35.926 18.1-46.107 46.126L812.1 305.5l-.05-106.25c-.028-58.437-.387-106.198-.8-106.134-.413.065-4.033 1.818-8.046 3.897M960 96.702c-6.185 4.394-18.774 10.05-27.494 12.354l-8.481 2.24-.263 36.058-.262 36.058-20.5 3.342c-28.389 4.627-29.999 5.547-45.534 26.016-11.003 14.499-11.074 14.206 2.852 11.846 5.05-.855 19.982-3.151 33.182-5.101 13.2-1.95 25.442-3.81 27.205-4.133l3.204-.588.375 98.853c.411 108.528.252 105.542 6.629 124.075 9.933 28.866 36.177 52.39 58.587 52.515 27.937.156 47.583-23.265 52.538-62.634 3.843-30.529-4.925-60.081-24.001-80.889-8.28-9.033-13.774-10.866-6.428-2.145 25.557 30.34 31.828 59.414 20.906 96.931-12.015 41.27-43.13 56.769-57.45 28.616-9.754-19.176-10.963-38.461-10.726-171.111l.161-90.495 6-.762c84.37-10.716 137.06-13.647 147.578-8.207 14.495 7.495 3.042 28.229-23.504 42.547-7.79 4.202-8.11 4.52-6.735 6.685 2.009 3.166 24.719-10.338 33.913-20.167 9.499-10.154 11.419-16.033 12.842-39.312.789-12.907.054-15.687-5.019-18.986-12.958-8.428-39.971-8.07-128.531 1.701-19.501 2.151-35.616 3.753-35.81 3.559-.194-.195-.388-18.414-.431-40.487-.043-22.073-.354-40.298-.691-40.499-.336-.201-2.187.753-4.112 2.12m-675.842 62.823c-26.51 24.127-56 50.616-63.474 57.014-7.764 6.645-2.934 4.245 18.849-9.367 12.082-7.55 23.655-14.764 25.717-16.031l3.75-2.304v160.946l-18.25 10.742c-48.831 28.742-70.852 46.807-87.486 71.767-31.338 47.023-22.522 103.482 22.304 142.837 28.376 24.914 67.563 28.065 118.495 9.528C338.617 572.082 433 526.045 489.252 494.33c9.214-5.195 17.194-9.172 17.735-8.838 4.144 2.561 16.365 24.313 20.514 36.511 5.32 15.642 5.938 37.044 1.455 50.359-7.96 23.64-34.947 45.982-63.117 52.257-10.006 2.228-9.839 2.169-9.839 3.495 0 1.826 12.046.429 22.5-2.61 40.809-11.863 72.784-45.241 74.257-77.516 1-21.903-8.065-40.204-29.774-60.114l-8.886-8.148 9.75-9.613c34.209-33.728 33.271-68.459-3.076-113.942-4.251-5.319-7.722-9.896-7.713-10.171.008-.275 1.981-1.745 4.384-3.267 39.467-24.993 48.344-81.992 15.289-98.164-27.799-13.601-57.334 3.758-66.259 38.944-8.748 34.486-6.836 52.819 7.916 75.879 4.37 6.832 4.372 6.861.573 11.657-21.054 26.583-13.745 65.792 18.608 99.818 5.334 5.61 9.499 10.398 9.256 10.641-1.061 1.062-37.884 18.098-118.825 54.974-34.428 15.685-83.162 35.024-102.5 40.674-34.811 10.172-68.752 7.301-91.579-7.746-24.366-16.06-33.766-63.89-20.717-105.41 12.19-38.789 37.35-68.3 85.884-100.737l13.588-9.081.662 49.573c.364 27.266.662 69.26.662 93.321v43.747l6.125-1.429c7.588-1.77 21.488-8.878 29.12-14.89l5.745-4.525.255-93.7.255-93.699 6.738-2.969c3.706-1.632 7.081-2.626 7.5-2.207.419.419.884 31.775 1.032 69.679.166 42.277.635 68.917 1.213 68.917 2.207 0 13.437-4.665 25.767-10.705l13.25-6.491.009-37.152c.014-61.417 3.953-85.322 19.49-118.279 9.081-19.265 22.369-37.105 24.638-33.08.651 1.156 1.218 38.353 1.595 104.75L413.318 468h2.235c6.909 0 23.19-7.004 32.697-14.065l5.75-4.271v-86.783c0-93.305.01-93.119-5.31-101.99-5.024-8.377-10.761-11.396-21.614-11.373-22.995.049-39.894 18.807-54.04 59.982-2.268 6.6-4.523 12.9-5.012 14-.54 1.216-.915-12.108-.956-34l-.068-36-15.25-.107c-8.387-.059-17.376-.562-19.975-1.117-6.332-1.352-6.094-2.874-5.651 36.078l.376 32.986-6.902 2.83c-3.796 1.557-7.281 2.83-7.745 2.83-.464 0-.958-43.076-1.098-95.725l-.255-95.726-26.342 23.976m288.301-14.158c-21.135 9.841-19.25 41.895 2.896 49.251 24.533 8.148 44.701-23.504 27.458-43.093-7.643-8.683-19.686-11.126-30.354-6.158m2.731 69.659c-13.054 7.958-1.671 27.041 12.203 20.458 8.621-4.091 8.774-16.804.25-20.849-4.588-2.177-8.44-2.056-12.453.391M692 231.576c0 .317 1.963 3.129 4.363 6.25 21.627 28.129 31.774 53.896 33.291 84.54l.65 13.134-4.902-4.542c-22.359-20.714-52.551-26.712-77.94-15.484-3.173 1.404-5.953 2.368-6.178 2.143-.693-.692 3.441-16.841 6.161-24.066 5.45-14.481 14.312-27.286 27.701-40.027 4.991-4.75 8.879-8.832 8.64-9.071-.239-.239-3.029.241-6.199 1.066-33.229 8.655-61.9 40.622-68.04 75.862-8.869 50.904 23.422 96.691 71.953 102.026l6 .659-2.64-2.283c-1.451-1.256-5.9-4.758-9.885-7.783-17.735-13.461-30.458-35.008-33.807-57.25-.476-3.163-.731-5.75-.567-5.75.164 0 2.334 1.374 4.822 3.053 24.223 16.348 53.573 17.863 76.684 3.957l6.393-3.846.304 16.168.304 16.168-6.304 5.864c-3.467 3.226-10.016 8.566-14.554 11.867s-8.25 6.36-8.25 6.797c0 2.322 16.715-3.344 23.627-8.009 2.46-1.661 4.676-3.019 4.923-3.019.248 0 .45 9.705.45 21.567 0 20.078-.121 21.531-1.75 21.031-20.96-6.424-53.181-9.99-69.309-7.67-38.704 5.568-61.927 28.588-63.672 63.118-2.237 44.268 30.444 78.067 75.731 78.322 39.035.219 70.083-26.328 88.526-75.692 1.305-3.494 2.239-4.696 3.388-4.361C800.782 507.647 813.913 511 819.423 511c4.073 0 9.046-5.215 11.183-11.727 2.353-7.172 2.674-30.859.485-35.773l-1.337-3-1.306 3.068c-2.544 5.978-3.118 6.059-17.915 2.513-7.375-1.767-20.524-5.378-29.221-8.023l-15.812-4.81.347-16.874c.568-27.639-2.233-56.464-7.458-76.762-1.373-5.335-1.356-7.011.186-17.851 7.516-52.86-13.424-91.114-59.335-108.395-6.773-2.549-7.24-2.665-7.24-1.79m-133.507 21.435c-.345.559-.515 44.702-.378 98.097l.25 97.08 2.383.906c5.9 2.243 28.208-.426 35.502-4.247 1.648-.864 1.75-6.469 1.75-96.168v-95.251l-15.25.036c-8.388.02-17.135-.302-19.44-.716-2.584-.464-4.43-.363-4.817.263m-72.752 13.406c-14.642 5.272-14.123 22.804 1.356 45.774 2.338 3.47 8.265 11.597 13.171 18.06l8.92 11.751 2.996-1.751c5.338-3.119 17.86-17.114 20.663-23.091 3.631-7.747 3.753-19.471.27-26.078-7.799-14.795-35.186-29.053-47.376-24.665M660.5 322.869c-3.3.95-9.263 3.234-13.25 5.077l-7.25 3.35v4.725c0 4.278.402 5.094 4.25 8.636 16.657 15.332 36.437 21.335 55.494 16.841 5.498-1.296 22.648-9.027 25.975-11.709 1.611-1.299-4.174-8.277-11.885-14.337-6.852-5.385-6.473-5.361-5.999-.386 2.042 21.411-25.989 32.915-39.692 16.291-5.957-7.226-5.995-19.225-.085-26.579 3.651-4.543 2.556-4.819-7.558-1.909m34.188 11.777c-1.472 1.471-.698 4.503 1.062 4.164.962-.186 1.75-1.194 1.75-2.24 0-1.99-1.631-3.106-2.812-1.924M479.22 375.658c-18.856 29.384-11.663 58.069 23.139 92.28 7.456 7.33 7.597 7.412 9.605 5.594 8.625-7.805 11.637-32.847 5.842-48.58-3.622-9.837-15.982-28.861-33.656-51.803l-1.811-2.352-3.119 4.861m162.982 96.364c-33.25 8.711-46.276 38.084-30.368 68.478 9.426 18.01 28.115 29.991 48.666 31.2 37.519 2.207 60.32-25.372 65.288-78.97l.812-8.769-7.842-2.478c-34.228-10.812-59.484-13.934-76.556-9.461" fill-rule="evenodd"/>
<path fill="#050505" stroke="#050505" d="M804.5 97.064c-5.421 3.09-27.939 10.936-31.385 10.936h-2.12l.532 159.25c.608 181.832.697 186.123 3.827 185.155 4.883-1.511 17.584-8.663 30.278-17.052l5.133-3.391.523-45.731c.558-48.851 1.373-59.15 6.194-78.306 5.714-22.708 15.719-39.856 27.168-46.566 9.724-5.698 9.59-7.087 10.307 107.141.568 90.649.707 96.275 2.479 100.933 6.34 16.665 30.345 23.771 45.776 13.55 11.464-7.594 17.309-24.085 13.665-38.557-1.757-6.979-2.406-6.176-5.138 6.356-3.961 18.168-8.991 29.218-13.3 29.218-3.965 0-4.28-6.576-4.883-101.718-.662-104.628-.78-106.103-9.454-118.42-4.911-6.974-8.152-8.362-19.529-8.362-22.462 0-38.664 15.99-50.158 49.502L811.5 309.5l-.254-107.75c-.14-59.263-.59-107.702-1-107.643-.411.059-2.996 1.39-5.746 2.957m155.2.494c-6.446 4.381-19.829 10.333-27.7 12.32l-7.5 1.894-.262 36.098-.263 36.098-2.237.51c-1.231.281-10.687 1.86-21.014 3.509-19.583 3.128-23.858 4.557-30.153 10.084-3.51 3.083-22.077 26.797-21.423 27.363.194.167 5.527-.568 11.852-1.633s23.014-3.627 37.088-5.694l25.587-3.757.688 95.302c.695 96.355 1.051 105.386 4.722 119.78 9.712 38.08 42.767 66.045 69.93 59.16 20.276-5.138 32.569-19.414 39.694-46.092 3.895-14.584 3.925-42.148.063-56.564-4.258-15.891-12.941-30.932-24.174-41.874-6.127-5.968-6.698-4.725-.922 2.01 24.843 28.974 30.987 64.122 17.683 101.162-15.372 42.795-47.474 51.167-59.852 15.609-6.966-20.01-6.819-17.114-7.227-142.063l-.368-112.72 2.294-.49c1.262-.27 12.194-1.629 24.294-3.02 94.19-10.828 126.523-11.076 133.111-1.021 6.182 9.434-7.009 27.692-27.834 38.526-6.768 3.521-10.064 6.945-6.686 6.945 2.356 0 18.782-9.248 25.376-14.287 14.816-11.322 19.417-23.11 19.502-49.963.027-8.596-.218-9.999-2.07-11.851-10.34-10.34-37.997-10.414-128.841-.346-17.293 1.917-33.15 3.758-35.239 4.092l-3.797.607-.261-41.138-.261-41.139-3.8 2.583m-672.2 59.587a7937.938 7937.938 0 0 1-44.5 40.064c-12.375 11.039-23.175 20.764-24 21.609-1.775 1.819-4.075 3.207 27.011-16.304C258.73 194.531 269.331 188 269.568 188c.238 0 .432 36.411.432 80.913v80.912l-23.75 14.213c-37.737 22.584-49.775 31.418-66.348 48.692-46.574 48.543-46.457 108.668.304 156.424 29.779 30.414 70.289 34.856 126.294 13.851 34.569-12.966 137.602-63.535 185.821-91.203 15.851-9.095 14.233-9.242 21.744 1.987 15.406 23.035 21.929 49.29 17.568 70.711-5.693 27.958-32.115 52.423-65.819 60.943-10.335 2.612-12.625 4.112-4.814 3.152 49.693-6.105 94.878-49.183 91.554-87.286-1.662-19.061-11.334-35.906-30.897-53.81l-8.646-7.913 8.517-7.896c36.089-33.455 35.372-69.696-2.304-116.479-4.114-5.108-7.31-9.423-7.102-9.587.208-.165 2.628-1.8 5.378-3.634 23.343-15.564 35.492-38.066 34.254-63.441-.738-15.112-5.911-25.626-15.322-31.142-25.83-15.137-56.768-2.28-66.861 27.786-11.26 33.545-9.919 58.562 4.418 82.383l5.077 8.437-3.892 5.743c-20.285 29.935-13.308 65.409 19.538 99.338 5.108 5.277 9.288 9.893 9.288 10.257 0 .798-14.431 7.692-50.5 24.126-14.85 6.766-36.9 16.891-49 22.5-37.918 17.579-76.192 33.546-109.152 45.536-55.474 20.181-105.133 10.726-122.227-23.272-18.123-36.046-12.913-83.471 13.595-123.741 16.27-24.716 31.504-39.038 66.774-62.775l16.01-10.775.255 93.525c.209 76.431.495 93.525 1.569 93.525 7.572 0 30.548-11.787 37.421-19.198l2.245-2.42.255-93.414.255-93.415 7-2.737c3.85-1.505 7.337-2.755 7.75-2.776.413-.022.75 31.455.75 69.949v69.99l7.793-2.844c4.286-1.564 13.174-5.534 19.75-8.822l11.957-5.978.567-46.417c.594-48.629.771-50.794 5.902-72.418 4.415-18.602 13.88-41.155 22.916-54.6 5.505-8.193 14.639-17.709 15.842-16.507.425.425.998 47.648 1.273 104.94l.5 104.167 3-.305c12.187-1.237 35.545-13.53 37.036-19.49.304-1.213.408-40.905.233-88.205-.354-95.481-.077-91.529-7.045-100.618-5.008-6.532-9.503-8.388-20.224-8.349-23.203.086-37.561 16.331-53.475 60.501l-5.932 16.466-.046-36.628-.047-36.628-18.25-.479c-10.038-.264-19.032-.814-19.987-1.224-1.628-.698-1.754 1.466-2 34.417l-.263 35.163-7.388 2.968c-4.064 1.632-7.535 2.822-7.713 2.643-.179-.179-.68-43.133-1.112-95.452l-.787-95.128-22 19.993m288.14-12.569c-10.8 3.441-18.454 15.51-17.376 27.4 2.004 22.103 29.05 31.097 43.618 14.505 17.386-19.801-1.41-49.815-26.242-41.905m-1.874 72.342c-7.386 6.599-2.611 19.082 7.299 19.082 5.512 0 9.331-2.208 11.415-6.6 5.21-10.978-9.453-20.757-18.714-12.482m122.149 19.208C719.803 268.08 730 294.446 730 324.256v12.034l-5.25-4.942c-22.806-21.471-55.27-26.924-81.15-13.631l-2.9 1.489.682-5.801c2.346-19.961 15.774-44.086 33.921-60.946 8.873-8.242 8.851-8.367-.948-5.344-35.037 10.808-61.956 44.715-65.144 82.055-4.08 47.789 26.918 88.661 70.818 93.376l6.471.695-7.151-5.077c-20.174-14.322-33.219-33.813-37.953-56.707-2.427-11.736-2.112-12.154 5.499-7.301 26.078 16.626 56.517 16.928 79.188.785 4.007-2.854 4.166-2.151 3.758 16.646l-.341 15.673-6 5.434c-3.3 2.989-9.726 8.167-14.279 11.508-4.553 3.34-8.134 6.218-7.957 6.395 1.449 1.45 19.139-5.643 25.486-10.219l2.25-1.622v44.506l-3.25-.605c-1.788-.333-9.775-2.002-17.75-3.709-67.182-14.383-113.583 11.657-113.247 63.552.267 41.235 30.276 71.435 72.778 73.242 38.966 1.656 68.755-22.263 88.916-71.392l3.755-9.151 6.649 1.955c40.476 11.902 52.888 14.374 57.384 11.428 5.66-3.709 9.548-21.854 7.75-36.173-1.271-10.12-1.846-11.194-3.851-7.181-2.235 4.475-5.865 4.628-20.738.869-10.898-2.754-41.359-11.727-42.006-12.374-.151-.151-.475-13.763-.718-30.249-.462-31.235-1.224-38.844-6.042-60.334-2.297-10.247-2.331-10.972-.923-19.64 2.128-13.099 1.291-39.26-1.599-50-7.009-26.039-24.473-45.764-50.202-56.702-13.756-5.849-13.867-5.856-9.991-.672M559 350.343c0 73.371.29 97.718 1.169 98.262 4.137 2.556 32.122-1.112 36.556-4.792 1.352-1.122 1.948-173.231.639-184.372l-.616-5.243-12.624.151c-6.943.083-15.436-.231-18.874-.697l-6.25-.848v97.539m-75.851-83.647c-12.026 5.926-11.503 22.429 1.345 42.464 7.101 11.073 23.69 32.84 25.028 32.84 2.052 0 8.773-5.446 14.888-12.064 15.974-17.288 16.231-34.795.719-49.156-13.708-12.691-32.208-18.898-41.98-14.084m178.203 55.273c-3.381.999-9.681 3.416-14 5.372l-7.852 3.555-.298 4.925c-.288 4.761-.138 5.067 4.5 9.196 23.524 20.94 47.133 24.02 74.641 9.736 10.485-5.444 10.497-5.632.981-14.798C707.597 328.661 707 328.469 707 335.997c0 9.759-3.599 16.197-11.247 20.119-21.537 11.044-41.115-13.22-26.319-32.618l2.668-3.498-2.301.076c-1.266.042-5.068.894-8.449 1.893m32.01 13.531c-.793 2.064.282 4.5 1.984 4.5 2.002 0 3.984-2.698 3.297-4.487-.749-1.954-4.533-1.963-5.281-.013m-214.183 39.221c-15.779 24.589-14.154 48.37 5.04 73.767C489.948 456.069 508.713 476 510.12 476c1.823 0 6.987-8.608 8.921-14.867 5.928-19.194 2.475-35.658-11.979-57.121-5.291-7.857-22.088-31.123-24.055-33.32-.398-.445-2.121 1.368-3.828 4.029m169.368 95.39c-27.242 3.97-46.788 25.592-44.09 48.772 3.719 31.958 33.008 56.309 64.505 53.63 31.378-2.669 50.104-26.698 56.491-72.49 2.525-18.103 3.545-16.163-10.703-20.35-31.621-9.293-49.916-11.935-66.203-9.562" fill-rule="evenodd"/>
</svg>